<?xml version="1.0" encoding="utf-8"?>
<!-- Generator: Adobe Illustrator 23.0.5, SVG Export Plug-In . SVG Version: 6.00 Build 0)  -->
<svg version="1.1" id="Capa_1" xmlns="http://www.w3.org/2000/svg" xmlns:xlink="http://www.w3.org/1999/xlink" x="0px" y="0px"
	 viewBox="0 0 182.1 44.5" style="enable-background:new 0 0 182.1 44.5;" xml:space="preserve">
<style type="text/css">
	.st0{fill:#FE4918;}
	.st1{fill:#FFFFFF;}
</style>
<rect class="st0" width="13.6" height="44.5"/>
<path class="st1" d="M17,33.7V9h5.7c1.1,0,2.1,0.1,2.9,0.4c0.8,0.2,1.5,0.6,2.1,1.1c0.5,0.5,1,1.2,1.2,1.9c0.3,0.8,0.4,1.7,0.4,2.8
	c0,1-0.1,1.9-0.4,2.6c-0.3,0.7-0.6,1.3-1.2,1.8c-0.5,0.4-1.2,0.7-2,0.8c1,0.2,1.8,0.6,2.4,1.1s1.1,1.2,1.4,2.1
	c0.3,0.8,0.4,1.9,0.4,3s-0.1,2-0.4,2.9c-0.2,0.9-0.6,1.6-1.1,2.2s-1.2,1.1-2,1.4c-0.8,0.3-1.7,0.5-2.8,0.5L17,33.7L17,33.7z
	 M20.4,19.3h2c1,0,1.7-0.1,2.3-0.4c0.5-0.3,0.9-0.7,1.2-1.3c0.2-0.6,0.3-1.4,0.3-2.4c0-1.1-0.2-2-0.5-2.5s-0.9-0.8-1.6-1
	c-0.7-0.1-1.7-0.2-2.9-0.2h-0.8V19.3z M20.4,31.2h2.3c1.5,0,2.6-0.4,3.1-1.1s0.8-1.9,0.8-3.5c0-1-0.1-1.9-0.4-2.6s-0.7-1.2-1.3-1.6
	c-0.6-0.4-1.4-0.5-2.4-0.5h-2v9.3H20.4z"/>
<path class="st1" d="M36.7,33.9c-1.4,0-2.6-0.5-3.5-1.4c-0.9-0.9-1.4-2.1-1.5-3.6l2.7-0.8c0.2,1.1,0.4,2,0.8,2.5
	c0.4,0.6,1,0.8,1.7,0.8c0.6,0,1-0.2,1.3-0.5s0.5-0.8,0.5-1.4c0-0.5-0.1-1-0.3-1.4s-0.6-0.8-1.1-1.3l-3-2.6c-0.6-0.5-1.1-1.1-1.5-1.8
	c-0.4-0.7-0.6-1.5-0.6-2.5c0-0.9,0.2-1.7,0.6-2.4c0.4-0.6,0.9-1.1,1.6-1.5c0.7-0.3,1.5-0.5,2.4-0.5c1.4,0,2.5,0.5,3.2,1.4
	s1.2,2,1.3,3.3L39.1,21c-0.1-0.6-0.2-1.1-0.4-1.6s-0.4-0.8-0.7-1.1c-0.3-0.3-0.7-0.4-1.1-0.4c-0.5,0-0.9,0.2-1.3,0.5
	c-0.3,0.4-0.5,0.8-0.5,1.3c0,0.3,0.1,0.6,0.2,0.9c0.1,0.3,0.4,0.6,0.7,0.9l3.1,2.9c0.4,0.4,0.8,0.8,1.2,1.3c0.4,0.4,0.7,1,0.9,1.5
	c0.2,0.6,0.4,1.2,0.4,2c0,1-0.2,1.8-0.6,2.5c-0.4,0.7-1,1.2-1.7,1.5C38.5,33.7,37.6,33.9,36.7,33.9z"/>
<path class="st1" d="M42.9,33.7L48.1,9h3.3l5.3,24.7h-3.3l-1.1-6.3h-5l-1.2,6.2L42.9,33.7L42.9,33.7z M47.8,25h4.1l-2.1-11.1
	L47.8,25z"/>
<path class="st1" d="M63,33.9c-1.4,0-2.6-0.5-3.5-1.4c-0.9-0.9-1.4-2.1-1.5-3.6l2.7-0.8c0.2,1.1,0.4,2,0.8,2.5
	c0.4,0.6,1,0.8,1.7,0.8c0.6,0,1-0.2,1.3-0.5s0.5-0.8,0.5-1.4c0-0.5-0.1-1-0.3-1.4s-0.6-0.8-1.1-1.3l-3-2.6c-0.6-0.5-1.1-1.1-1.5-1.8
	c-0.4-0.7-0.6-1.5-0.6-2.5c0-0.9,0.2-1.7,0.6-2.4c0.4-0.6,0.9-1.1,1.6-1.5c0.7-0.3,1.5-0.5,2.4-0.5c1.4,0,2.5,0.5,3.2,1.4
	s1.2,2,1.3,3.3l-2.3,1c-0.1-0.6-0.2-1.1-0.4-1.6c-0.2-0.5-0.4-0.8-0.7-1.1c-0.3-0.3-0.7-0.4-1.1-0.4c-0.5,0-0.9,0.2-1.3,0.5
	c-0.3,0.4-0.5,0.8-0.5,1.3c0,0.3,0.1,0.6,0.2,0.9s0.4,0.6,0.7,0.9l3.1,2.9c0.4,0.4,0.8,0.8,1.2,1.3c0.4,0.4,0.7,1,0.9,1.5
	c0.2,0.6,0.4,1.2,0.4,2c0,1-0.2,1.8-0.6,2.5c-0.4,0.7-1,1.2-1.7,1.5C64.8,33.7,64,33.9,63,33.9z"/>
<path class="st1" d="M73.7,33.7L69.7,9h2.9l2.6,17.7l3.3-17.6h2.4l3.4,17.7L86.9,9h2.8l-4,24.7h-2.4l-3.4-18.3l-3.5,18.3
	C76.4,33.7,73.7,33.7,73.7,33.7z"/>
<path class="st1" d="M97,33.9c-1.4,0-2.4-0.3-3.2-0.8c-0.7-0.5-1.3-1.3-1.6-2.4c-0.3-1-0.4-2.3-0.4-3.9v-4c0-1.6,0.2-2.9,0.5-3.9
	s0.8-1.8,1.6-2.3c0.8-0.5,1.8-0.8,3.1-0.8c1.5,0,2.6,0.3,3.3,0.9c0.7,0.6,1.2,1.5,1.4,2.6s0.3,2.5,0.3,4.1v1.4h-6.9v3.5
	c0,0.7,0.1,1.3,0.2,1.7c0.1,0.4,0.3,0.8,0.6,1c0.3,0.2,0.7,0.3,1.1,0.3c0.5,0,0.9-0.1,1.1-0.4c0.3-0.2,0.4-0.6,0.5-1
	c0.1-0.4,0.1-1,0.1-1.5v-1.1h3.2V28c0,1.8-0.4,3.2-1.1,4.2C100.1,33.4,98.8,33.9,97,33.9z M95,23.1h3.7v-1.6c0-0.7,0-1.3-0.1-1.8
	c-0.1-0.5-0.2-0.9-0.5-1.1c-0.3-0.3-0.7-0.4-1.2-0.4s-0.9,0.1-1.2,0.4c-0.3,0.2-0.5,0.7-0.6,1.2c-0.1,0.6-0.2,1.4-0.2,2.4L95,23.1
	L95,23.1z"/>
<path class="st1" d="M111.2,33.9c-0.6,0-1.2-0.2-1.7-0.5s-0.9-0.7-1.3-1.1v1.3h-3.3V9h3.3v8.5c0.4-0.4,0.8-0.8,1.4-1.2
	c0.5-0.3,1.2-0.5,1.9-0.5c0.9,0,1.6,0.2,2.2,0.7c0.5,0.5,0.9,1.1,1.2,1.8c0.3,0.7,0.4,1.5,0.5,2.2c0.1,0.7,0.1,1.4,0.1,1.9v4.3
	c0,1.2-0.1,2.4-0.4,3.5c-0.2,1.1-0.7,2-1.3,2.7C113.3,33.6,112.4,33.9,111.2,33.9z M110.5,31.3c0.6,0,1-0.2,1.2-0.6s0.4-1,0.5-1.7
	c0.1-0.7,0.1-1.5,0.1-2.3v-4.3c0-0.7,0-1.4-0.1-2c-0.1-0.6-0.3-1.1-0.5-1.5c-0.3-0.4-0.7-0.5-1.2-0.5c-0.4,0-0.8,0.1-1.2,0.3
	c-0.4,0.2-0.7,0.4-1,0.6v11.3c0.3,0.2,0.6,0.4,1,0.6C109.6,31.3,110.1,31.3,110.5,31.3z"/>
<path class="st1" d="M125,33.9c-1.7,0-3.1-0.4-4.1-1.1c-1-0.7-1.6-1.7-2-3c-0.4-1.2-0.6-2.6-0.6-4.1V17c0-1.7,0.2-3.1,0.6-4.4
	c0.4-1.2,1-2.2,2-2.9s2.3-1,4.1-1c1.5,0,2.8,0.3,3.7,0.9c0.9,0.6,1.5,1.4,1.9,2.4c0.4,1.1,0.6,2.3,0.6,3.8v2h-3.3v-1.7
	c0-0.9,0-1.7-0.1-2.4s-0.3-1.2-0.7-1.6c-0.4-0.4-1.1-0.6-2-0.6c-1,0-1.7,0.2-2.1,0.6c-0.4,0.4-0.7,1-0.9,1.8
	c-0.1,0.8-0.2,1.7-0.2,2.7v9.8c0,1.2,0.1,2.2,0.3,2.9c0.2,0.7,0.5,1.2,1,1.5s1.1,0.5,1.9,0.5c0.9,0,1.6-0.2,2-0.6s0.7-1,0.8-1.7
	s0.2-1.6,0.2-2.6v-1.8h3.3v1.8c0,1.5-0.2,2.8-0.5,4c-0.4,1.1-1,2-1.9,2.7C127.8,33.6,126.6,33.9,125,33.9z"/>
<path class="st1" d="M137.3,33.9c-0.7,0-1.3-0.2-1.8-0.6c-0.5-0.4-0.9-0.9-1.2-1.5c-0.3-0.6-0.5-1.3-0.5-2c0-1.1,0.2-2,0.5-2.8
	c0.4-0.8,0.9-1.4,1.5-1.9s1.4-1,2.2-1.4s1.7-0.8,2.7-1.1v-1.3c0-0.7,0-1.3-0.1-1.8s-0.2-0.8-0.5-1.1c-0.3-0.2-0.6-0.4-1.1-0.4
	c-0.4,0-0.8,0.1-1.1,0.3c-0.3,0.2-0.5,0.5-0.6,0.9s-0.2,0.8-0.2,1.3v0.9l-3.2-0.1c0-2,0.5-3.4,1.3-4.3c0.9-0.9,2.2-1.4,4-1.4
	c1.7,0,3,0.5,3.7,1.4c0.7,1,1.1,2.3,1.1,4.1v8c0,0.5,0,1.1,0,1.6s0.1,1,0.1,1.4c0.1,0.4,0.1,0.8,0.1,1.2h-3
	c-0.1-0.3-0.1-0.7-0.2-1.2c-0.1-0.5-0.2-1-0.2-1.4c-0.2,0.7-0.6,1.3-1.2,1.9C139.1,33.6,138.3,33.9,137.3,33.9z M138.6,31.1
	c0.3,0,0.6-0.1,0.9-0.3c0.3-0.2,0.5-0.4,0.8-0.6c0.2-0.2,0.4-0.4,0.5-0.6v-5c-0.5,0.3-1,0.6-1.4,0.9s-0.8,0.6-1.2,0.9
	c-0.3,0.3-0.6,0.7-0.8,1.1s-0.3,0.8-0.3,1.4c0,0.7,0.1,1.3,0.4,1.7C137.7,30.9,138.1,31.1,138.6,31.1z"/>
<path class="st1" d="M147.1,33.7V16h3v1.7c0.6-0.7,1.2-1.2,1.9-1.5c0.7-0.3,1.4-0.5,2.2-0.5c0.6,0,1.2,0.2,1.7,0.5
	c0.5,0.3,0.9,0.9,1.1,1.7c0.6-0.8,1.3-1.3,2.1-1.7c0.7-0.4,1.5-0.5,2.3-0.5c0.6,0,1.1,0.1,1.5,0.4c0.5,0.3,0.8,0.7,1.1,1.3
	c0.3,0.6,0.4,1.4,0.4,2.4v13.8h-3V20c0-0.9-0.1-1.4-0.4-1.7c-0.3-0.3-0.6-0.4-1.1-0.4c-0.4,0-0.9,0.1-1.4,0.4s-0.9,0.6-1.3,1.1
	c0,0.1,0,0.2,0,0.2c0,0.1,0,0.2,0,0.3v13.8h-3V20c0-0.9-0.1-1.4-0.4-1.7c-0.3-0.3-0.6-0.4-1.1-0.4c-0.4,0-0.9,0.1-1.4,0.4
	s-0.9,0.6-1.4,1.1v14.4L147.1,33.7L147.1,33.7z"/>
<path class="st1" d="M167.8,39.5V16h3.3v1.4c0.4-0.4,0.9-0.8,1.4-1.2c0.5-0.3,1.2-0.5,1.9-0.5c0.9,0,1.6,0.2,2.2,0.7
	c0.5,0.5,0.9,1.1,1.2,1.8c0.3,0.7,0.4,1.5,0.5,2.2s0.1,1.4,0.1,1.9v4.3c0,1.2-0.1,2.4-0.4,3.5c-0.2,1.1-0.7,2-1.3,2.7s-1.5,1-2.7,1
	c-0.6,0-1.2-0.2-1.7-0.5s-0.9-0.7-1.3-1.1v7.1h-3.2V39.5z M173.4,31.3c0.6,0,1-0.2,1.2-0.6s0.4-1,0.5-1.7s0.1-1.5,0.1-2.3v-4.3
	c0-0.7,0-1.4-0.1-2s-0.3-1.1-0.5-1.5c-0.3-0.4-0.7-0.5-1.2-0.5c-0.4,0-0.8,0.1-1.2,0.3c-0.4,0.2-0.7,0.4-1,0.6v11.3
	c0.3,0.2,0.6,0.4,1,0.6C172.4,31.3,172.9,31.3,173.4,31.3z"/>
</svg>
