<?xml version="1.0" encoding="utf-8"?>
<!-- Generator: Adobe Illustrator 23.0.5, SVG Export Plug-In . SVG Version: 6.00 Build 0)  -->
<svg version="1.1" id="Capa_1" xmlns="http://www.w3.org/2000/svg" xmlns:xlink="http://www.w3.org/1999/xlink" x="0px" y="0px"
	 viewBox="0 0 265 58.8" style="enable-background:new 0 0 265 58.8;" xml:space="preserve">
<style type="text/css">
	.st0{enable-background:new    ;}
	.st1{fill:#FE4918;}
</style>
<g class="st0">
	<path d="M32.9,243.3h18.8v22.5c-2,1.7-4.4,2.9-7.2,3.7c-2.8,0.8-5.6,1.2-8.3,1.2c-3.2,0-6.2-0.5-9-1.5c-2.8-1-5.1-2.6-7.2-4.7
		c-2-2.1-3.6-4.9-4.8-8.2c-1.2-3.3-1.7-7.2-1.7-11.8c0-4.8,0.7-8.8,2.1-12.1c1.4-3.3,3.2-6,5.4-8.1s4.7-3.6,7.5-4.5
		c2.8-0.9,5.6-1.4,8.5-1.4c2.9,0,5.4,0.2,7.6,0.6c2.2,0.4,3.9,0.9,5.2,1.4l-2,8.3c-1.2-0.5-2.5-0.9-4-1.1c-1.5-0.3-3.4-0.4-5.7-0.4
		c-2.1,0-4,0.3-5.7,0.9c-1.7,0.6-3.2,1.6-4.5,3.1c-1.3,1.4-2.3,3.2-3,5.4c-0.7,2.2-1,4.9-1,8.1c0,3,0.3,5.6,1,7.8
		c0.7,2.2,1.6,4,2.8,5.4c1.2,1.4,2.6,2.5,4.2,3.1c1.6,0.7,3.3,1,5.1,1c1.2,0,2.5-0.2,3.7-0.5c1.2-0.3,2.2-0.8,3-1.4v-9.5l-10.9-1.2
		C32.9,249.3,32.9,243.3,32.9,243.3z"/>
	<path d="M59,219.2c1-0.1,2.1-0.3,3.4-0.4c1.3-0.1,2.6-0.2,3.9-0.2c1.3,0,2.7-0.1,3.9-0.1c1.3,0,2.4,0,3.4,0c4.5,0,8.3,0.6,11.4,1.9
		c3.2,1.2,5.7,3,7.7,5.3c2,2.3,3.4,4.9,4.3,8.1c0.9,3.1,1.4,6.6,1.4,10.3c0,3.4-0.4,6.7-1.3,9.9c-0.9,3.2-2.3,6-4.3,8.4
		c-2,2.4-4.7,4.4-8,5.9s-7.4,2.2-12.2,2.2c-0.8,0-1.8,0-3.1-0.1c-1.3,0-2.6-0.1-4-0.2c-1.4-0.1-2.7-0.1-3.9-0.2
		c-1.2-0.1-2.2-0.2-2.8-0.3C59,269.7,59,219.2,59,219.2z M74.5,227.3c-1.1,0-2.1,0-3.2,0.1s-1.9,0.1-2.4,0.2v33.8
		c0.2,0,0.5,0.1,1,0.1c0.5,0,0.9,0,1.5,0.1c0.5,0,1,0,1.5,0.1c0.5,0,0.8,0,1.1,0c2.8,0,5.1-0.5,6.9-1.5c1.8-1,3.3-2.3,4.4-3.9
		c1.1-1.6,1.8-3.5,2.3-5.7s0.6-4.3,0.6-6.6c0-2-0.2-3.9-0.6-5.9c-0.4-2-1.1-3.8-2.1-5.4c-1-1.6-2.4-2.9-4.2-3.9
		C79.5,227.8,77.2,227.3,74.5,227.3z"/>
	<path d="M137.5,269.6h-31.9v-50.4h9.9v41.6h22V269.6z"/>
	<path d="M149.4,247.4l0.9,8.9h0.3l1-9.1l8.8-28h6.5l8.6,28.2l1,8.9h0.3l1.1-9.1l6.2-28h9.9L180.2,270h-6.6l-9-28l-1.2-7.7h-0.4
		l-1.2,7.8l-8.9,27.9h-7L132,219.2h10.7L149.4,247.4z"/>
	<path d="M198.4,219.2h29.9v8.8h-20v11.7h18.2v8.8h-18.2v12.3h20.4v8.8h-30.2V219.2z"/>
	<path d="M269.9,230.9c0,1.2-0.2,2.5-0.5,3.7c-0.3,1.2-0.8,2.4-1.5,3.4c-0.7,1-1.6,1.9-2.8,2.7c-1.1,0.8-2.5,1.4-4.2,1.8v0.4
		c1.4,0.2,2.8,0.6,4.1,1.2c1.3,0.6,2.4,1.4,3.4,2.4s1.7,2.2,2.3,3.7c0.5,1.4,0.8,3.1,0.8,5.1c0,2.6-0.6,4.8-1.7,6.7
		c-1.1,1.9-2.6,3.4-4.4,4.6c-1.8,1.2-3.9,2.1-6.3,2.7c-2.4,0.6-4.8,0.9-7.3,0.9c-0.8,0-1.9,0-3.1,0s-2.6,0-4.1-0.1
		c-1.5-0.1-3-0.2-4.5-0.3c-1.5-0.1-2.9-0.4-4.1-0.6v-49.7c0.9-0.1,2-0.3,3.1-0.4c1.2-0.1,2.4-0.3,3.8-0.4c1.3-0.1,2.7-0.2,4.1-0.2
		c1.4,0,2.8-0.1,4.2-0.1c2.4,0,4.6,0.2,6.9,0.5c2.2,0.4,4.2,1,6,1.9c1.8,0.9,3.2,2.2,4.2,3.8C269.3,226.4,269.9,228.4,269.9,230.9z
		 M248.8,240.4c0.7,0,1.5,0,2.3-0.1c0.9,0,1.6-0.1,2.2-0.2c1.8-0.6,3.4-1.4,4.7-2.6c1.3-1.1,2-2.6,2-4.5c0-1.2-0.2-2.3-0.7-3.1
		c-0.5-0.8-1.1-1.4-1.9-1.9c-0.8-0.5-1.7-0.8-2.7-1c-1-0.2-2.1-0.3-3.2-0.3c-1.2,0-2.4,0-3.5,0.1c-1.1,0-1.9,0.1-2.4,0.2v13.3
		L248.8,240.4L248.8,240.4z M251.9,262c1.2,0,2.3-0.1,3.4-0.4c1.1-0.3,2.1-0.7,2.9-1.3c0.8-0.6,1.5-1.3,2-2.2c0.5-0.9,0.8-2,0.8-3.2
		c0-1.6-0.3-2.8-0.9-3.7c-0.6-0.9-1.4-1.6-2.4-2.1c-1-0.5-2.1-0.8-3.3-1c-1.2-0.1-2.5-0.2-3.7-0.2h-5.2v13.8
		c0.2,0.1,0.6,0.2,1.1,0.2c0.5,0,1.1,0.1,1.7,0.1c0.6,0,1.2,0,1.8,0.1C250.9,262,251.4,262,251.9,262z"/>
	<path d="M312.6,267.5c-1.5,1.1-3.5,1.9-5.9,2.4c-2.4,0.5-4.8,0.7-7.3,0.7c-3,0-5.9-0.5-8.6-1.4c-2.7-0.9-5.1-2.4-7.2-4.5
		c-2.1-2.1-3.7-4.8-4.9-8.1c-1.2-3.3-1.8-7.4-1.8-12.1c0-4.9,0.7-9.1,2.1-12.4c1.4-3.3,3.1-6,5.3-8.1s4.6-3.5,7.3-4.4
		c2.7-0.9,5.4-1.3,8.1-1.3c2.9,0,5.3,0.2,7.3,0.6c2,0.4,3.6,0.8,4.9,1.4l-1.9,8.4c-1.1-0.5-2.4-0.9-3.9-1.2
		c-1.5-0.2-3.3-0.4-5.5-0.4c-4,0-7.2,1.4-9.6,4.3c-2.4,2.8-3.6,7.2-3.6,13.2c0,2.6,0.3,5,0.9,7.1c0.6,2.1,1.5,4,2.6,5.5
		c1.2,1.5,2.6,2.7,4.4,3.5c1.8,0.8,3.8,1.3,6.1,1.3c2.2,0,4-0.2,5.5-0.6c1.5-0.4,2.8-1,3.9-1.7L312.6,267.5z"/>
	<path d="M340.4,258.4h-15.5l-3.8,11.2h-9.9l18.1-50.8h7.3l18.1,50.8h-10.4L340.4,258.4z M327.5,250.5h10.8l-3.7-11.2l-1.5-7.9h-0.4
		l-1.5,8L327.5,250.5z"/>
	<path d="M398.2,243.5l1.1-10h-0.4l-3.1,8.1l-10.7,18.8h-3.2l-11.3-18.9l-3.2-8h-0.4l1.4,9.9v26.2h-9.4v-50.4h9l13.5,23l2.4,5.8h0.3
		l2.2-5.9l12.7-22.9h8.9v50.4h-9.9L398.2,243.5L398.2,243.5z"/>
	<path d="M416.7,219.7c2-0.4,4.2-0.7,6.7-0.9c2.4-0.2,4.8-0.3,7.2-0.3c2.5,0,5,0.2,7.5,0.6c2.5,0.4,4.8,1.2,6.8,2.4s3.7,2.9,4.9,5.1
		c1.3,2.2,1.9,5,1.9,8.5c0,3.2-0.6,5.8-1.7,8c-1.1,2.2-2.6,4-4.4,5.4c-1.8,1.4-3.9,2.4-6.2,3c-2.3,0.6-4.7,0.9-7.2,0.9
		c-0.2,0-0.6,0-1.2,0s-1.1,0-1.7,0c-0.6,0-1.1-0.1-1.7-0.1c-0.6,0-0.9-0.1-1.2-0.1v17.4h-9.9L416.7,219.7L416.7,219.7z M431.4,227
		c-1,0-1.9,0-2.7,0.1c-0.9,0.1-1.6,0.2-2.1,0.3v16.3c0.2,0,0.5,0.1,0.9,0.1c0.4,0,0.8,0.1,1.2,0.1c0.4,0,0.9,0,1.3,0
		c0.4,0,0.7,0,0.9,0c1.3,0,2.6-0.1,3.9-0.4c1.3-0.2,2.4-0.7,3.4-1.3c1-0.6,1.8-1.5,2.4-2.7c0.6-1.2,0.9-2.7,0.9-4.5
		c0-1.6-0.3-2.9-0.9-3.9c-0.6-1-1.3-1.9-2.3-2.5c-0.9-0.6-2-1.1-3.2-1.3C433.9,227.1,432.7,227,431.4,227z"/>
</g>
<rect class="st1" width="18" height="58.8"/>
<g>
	<g>
		<path d="M34.2,47.3V14.6h7.5c1.5,0,2.8,0.2,3.8,0.5c1.1,0.3,2,0.8,2.7,1.5c0.7,0.7,1.3,1.5,1.6,2.6c0.3,1,0.5,2.2,0.5,3.6
			c0,1.3-0.2,2.5-0.5,3.5c-0.3,1-0.8,1.8-1.5,2.3s-1.6,0.9-2.6,1.1c1.3,0.3,2.4,0.8,3.2,1.5c0.8,0.7,1.4,1.6,1.8,2.7
			c0.4,1.1,0.6,2.5,0.6,4c0,1.4-0.2,2.7-0.5,3.8s-0.8,2.1-1.5,2.9s-1.6,1.4-2.6,1.9c-1.1,0.4-2.3,0.7-3.8,0.7H34.2z M38.7,28.3h2.7
			c1.3,0,2.3-0.2,3-0.5c0.7-0.4,1.2-0.9,1.5-1.8c0.3-0.8,0.4-1.9,0.4-3.1c0-1.5-0.2-2.6-0.7-3.3c-0.5-0.7-1.2-1.1-2.1-1.3
			c-1-0.2-2.2-0.3-3.8-0.3h-1.1V28.3z M38.7,44h3.1c2,0,3.4-0.5,4.1-1.4s1-2.5,1-4.6c0-1.4-0.2-2.5-0.5-3.4
			c-0.4-0.9-0.9-1.6-1.7-2.1c-0.8-0.5-1.9-0.7-3.2-0.7h-2.7V44z"/>
		<path d="M60.3,47.6c-1.9,0-3.4-0.6-4.6-1.8s-1.8-2.8-2-4.7l3.6-1.1c0.2,1.5,0.6,2.6,1.1,3.3c0.5,0.7,1.3,1.1,2.3,1.1
			c0.8,0,1.4-0.2,1.8-0.7c0.4-0.4,0.6-1,0.6-1.8c0-0.7-0.1-1.3-0.4-1.8c-0.3-0.5-0.8-1.1-1.4-1.7l-4-3.4c-0.8-0.7-1.5-1.5-2-2.3
			s-0.8-2-0.8-3.3c0-1.2,0.2-2.3,0.7-3.1c0.5-0.8,1.2-1.5,2.1-1.9c0.9-0.4,2-0.7,3.2-0.7c1.9,0,3.3,0.6,4.2,1.8
			c1,1.2,1.5,2.6,1.7,4.3l-2.9,1.1c-0.1-0.8-0.3-1.5-0.5-2.1c-0.2-0.6-0.5-1.1-0.9-1.4c-0.4-0.3-0.9-0.5-1.5-0.5
			c-0.7,0-1.3,0.2-1.7,0.7c-0.4,0.5-0.6,1-0.6,1.7c0,0.4,0.1,0.8,0.3,1.2c0.2,0.4,0.5,0.8,0.9,1.1l4.1,3.8c0.6,0.5,1.1,1.1,1.6,1.7
			c0.5,0.6,0.9,1.3,1.2,2c0.3,0.8,0.5,1.6,0.5,2.6c0,1.3-0.3,2.4-0.8,3.3c-0.5,0.9-1.3,1.6-2.3,2C62.7,47.4,61.6,47.6,60.3,47.6z"/>
		<path d="M68.6,47.3l6.9-32.6h4.4l7,32.6h-4.3L81,39.1h-6.6l-1.6,8.2H68.6z M75,35.8h5.4l-2.7-14.7L75,35.8z"/>
		<path d="M95.2,47.6c-1.9,0-3.4-0.6-4.6-1.8s-1.8-2.8-2-4.7l3.6-1.1c0.2,1.5,0.6,2.6,1.1,3.3c0.5,0.7,1.3,1.1,2.3,1.1
			c0.8,0,1.4-0.2,1.8-0.7c0.4-0.4,0.6-1,0.6-1.8c0-0.7-0.1-1.3-0.4-1.8c-0.3-0.5-0.8-1.1-1.4-1.7l-4-3.4c-0.8-0.7-1.5-1.5-2-2.3
			s-0.8-2-0.8-3.3c0-1.2,0.2-2.3,0.7-3.1c0.5-0.8,1.2-1.5,2.1-1.9c0.9-0.4,2-0.7,3.2-0.7c1.9,0,3.3,0.6,4.2,1.8
			c1,1.2,1.5,2.6,1.7,4.3l-2.9,1.1c-0.1-0.8-0.3-1.5-0.5-2.1c-0.2-0.6-0.5-1.1-0.9-1.4c-0.4-0.3-0.9-0.5-1.5-0.5
			c-0.7,0-1.3,0.2-1.7,0.7c-0.4,0.5-0.6,1-0.6,1.7c0,0.4,0.1,0.8,0.3,1.2c0.2,0.4,0.5,0.8,0.9,1.1l4.1,3.8c0.6,0.5,1.1,1.1,1.6,1.7
			c0.5,0.6,0.9,1.3,1.2,2c0.3,0.8,0.5,1.6,0.5,2.6c0,1.3-0.3,2.4-0.8,3.3c-0.5,0.9-1.3,1.6-2.3,2C97.6,47.4,96.5,47.6,95.2,47.6z"/>
		<path d="M109.4,47.3l-5.3-32.6h3.8l3.5,23.4l4.4-23.3h3.2l4.4,23.4l3.4-23.6h3.7l-5.2,32.6H122l-4.6-24.2l-4.6,24.2H109.4z"/>
		<path d="M140.6,47.6c-1.8,0-3.2-0.4-4.2-1.1c-1-0.7-1.7-1.8-2.1-3.1c-0.4-1.4-0.6-3.1-0.6-5.1V33c0-2.1,0.2-3.8,0.6-5.2
			c0.4-1.4,1.1-2.4,2.1-3.1s2.4-1,4.2-1c2,0,3.4,0.4,4.3,1.2c0.9,0.8,1.5,2,1.8,3.5c0.3,1.5,0.4,3.3,0.4,5.5v1.9h-9.2v4.7
			c0,0.9,0.1,1.7,0.3,2.3c0.2,0.6,0.5,1,0.8,1.3c0.4,0.3,0.9,0.4,1.5,0.4c0.6,0,1.1-0.2,1.5-0.5c0.3-0.3,0.6-0.8,0.7-1.3
			c0.1-0.6,0.2-1.3,0.2-2v-1.4h4.2v0.9c0,2.3-0.5,4.2-1.5,5.5C144.7,46.9,143,47.6,140.6,47.6z M138.1,33.4h5v-2.1
			c0-1-0.1-1.8-0.2-2.4c-0.1-0.7-0.3-1.2-0.7-1.5c-0.3-0.3-0.9-0.5-1.6-0.5c-0.7,0-1.2,0.2-1.6,0.5c-0.4,0.3-0.6,0.9-0.7,1.6
			c-0.1,0.8-0.2,1.8-0.2,3.2V33.4z"/>
		<path d="M159.5,47.6c-0.8,0-1.6-0.2-2.2-0.6c-0.7-0.4-1.2-0.9-1.7-1.4v1.7h-4.3V14.6h4.3v11.2c0.5-0.6,1.1-1.1,1.8-1.5
			c0.7-0.4,1.6-0.6,2.6-0.6c1.2,0,2.2,0.3,2.9,0.9c0.7,0.6,1.2,1.4,1.6,2.4c0.3,1,0.6,1.9,0.7,2.9c0.1,1,0.2,1.8,0.2,2.5V38
			c0,1.6-0.2,3.2-0.5,4.7c-0.3,1.5-0.9,2.6-1.7,3.5C162.2,47.1,161,47.6,159.5,47.6z M158.6,44.2c0.8,0,1.3-0.3,1.6-0.8
			c0.3-0.5,0.5-1.3,0.6-2.2s0.1-2,0.1-3.1v-5.6c0-1-0.1-1.9-0.2-2.7c-0.1-0.8-0.3-1.5-0.7-2c-0.3-0.5-0.9-0.7-1.7-0.7
			c-0.6,0-1.1,0.1-1.6,0.4c-0.5,0.2-0.9,0.5-1.3,0.8v14.9c0.4,0.3,0.8,0.5,1.3,0.7C157.4,44.1,158,44.2,158.6,44.2z"/>
		<path d="M177.7,47.6c-2.3,0-4.1-0.5-5.4-1.4c-1.3-1-2.2-2.3-2.7-3.9c-0.5-1.6-0.7-3.5-0.7-5.5V25.3c0-2.2,0.2-4.1,0.7-5.8
			c0.5-1.6,1.4-2.9,2.7-3.8c1.3-0.9,3.1-1.3,5.4-1.3c2,0,3.7,0.4,4.9,1.1c1.2,0.8,2.1,1.8,2.6,3.2c0.5,1.4,0.8,3.1,0.8,5v2.6h-4.3
			V24c0-1.2-0.1-2.3-0.2-3.2c-0.1-0.9-0.4-1.6-1-2.2c-0.5-0.5-1.4-0.8-2.7-0.8c-1.3,0-2.2,0.3-2.8,0.8c-0.6,0.6-1,1.3-1.1,2.3
			c-0.2,1-0.3,2.2-0.3,3.5v12.9c0,1.6,0.1,2.9,0.4,3.9c0.3,1,0.7,1.6,1.3,2c0.6,0.4,1.4,0.6,2.5,0.6c1.2,0,2.1-0.3,2.7-0.8
			c0.5-0.5,0.9-1.3,1-2.3c0.1-1,0.2-2.1,0.2-3.4v-2.4h4.3v2.4c0,2-0.2,3.7-0.7,5.3c-0.5,1.5-1.3,2.7-2.5,3.5
			C181.5,47.2,179.8,47.6,177.7,47.6z"/>
		<path d="M194.1,47.6c-0.9,0-1.7-0.3-2.4-0.8c-0.7-0.5-1.2-1.2-1.7-2c-0.4-0.8-0.6-1.7-0.6-2.6c0-1.5,0.2-2.7,0.7-3.7
			c0.5-1,1.1-1.8,2-2.5s1.8-1.3,2.9-1.8c1.1-0.5,2.3-1,3.5-1.5v-1.7c0-0.9-0.1-1.7-0.2-2.3c-0.1-0.6-0.3-1.1-0.7-1.4
			c-0.3-0.3-0.8-0.5-1.5-0.5c-0.6,0-1.1,0.1-1.4,0.4c-0.4,0.3-0.6,0.7-0.8,1.1c-0.2,0.5-0.2,1.1-0.2,1.8v1.2l-4.3-0.2
			c0.1-2.6,0.6-4.5,1.8-5.7c1.1-1.2,2.9-1.8,5.2-1.8c2.3,0,3.9,0.6,4.9,1.9c1,1.3,1.4,3.1,1.4,5.5v10.6c0,0.7,0,1.4,0.1,2.1
			c0,0.7,0.1,1.3,0.2,1.9c0.1,0.6,0.1,1.1,0.2,1.6h-3.9c-0.1-0.4-0.2-1-0.3-1.6c-0.1-0.7-0.2-1.3-0.3-1.8c-0.3,0.9-0.8,1.8-1.6,2.6
			C196.5,47.2,195.4,47.6,194.1,47.6z M195.8,43.9c0.4,0,0.8-0.1,1.2-0.4c0.4-0.2,0.7-0.5,1-0.8c0.3-0.3,0.5-0.6,0.6-0.7v-6.6
			c-0.7,0.4-1.3,0.8-1.9,1.1c-0.6,0.4-1.1,0.8-1.6,1.2s-0.8,0.9-1,1.4c-0.3,0.5-0.4,1.1-0.4,1.8c0,0.9,0.2,1.7,0.5,2.2
			C194.6,43.6,195.1,43.9,195.8,43.9z"/>
		<path d="M207.1,47.3V24h4v2.2c0.8-0.9,1.6-1.5,2.6-2c0.9-0.4,1.9-0.6,2.9-0.6c0.9,0,1.6,0.2,2.3,0.6c0.7,0.4,1.2,1.2,1.5,2.3
			c0.8-1,1.7-1.8,2.7-2.2c1-0.5,2-0.7,3.1-0.7c0.8,0,1.4,0.2,2.1,0.5c0.6,0.4,1.1,0.9,1.5,1.7c0.4,0.8,0.6,1.8,0.6,3.1v18.3h-3.9
			v-18c0-1.1-0.2-1.9-0.5-2.3c-0.4-0.4-0.9-0.6-1.5-0.6c-0.6,0-1.2,0.2-1.9,0.5c-0.6,0.3-1.2,0.8-1.8,1.4c0,0.1,0,0.2,0,0.3
			c0,0.1,0,0.2,0,0.4v18.3h-3.9v-18c0-1.1-0.2-1.9-0.5-2.3c-0.4-0.4-0.9-0.6-1.5-0.6c-0.6,0-1.2,0.2-1.8,0.5
			c-0.6,0.3-1.2,0.8-1.8,1.4v19H207.1z"/>
		<path d="M234.4,54.9V24h4.3v1.9c0.5-0.6,1.1-1.1,1.9-1.5c0.7-0.4,1.6-0.6,2.6-0.6c1.2,0,2.2,0.3,2.9,0.9c0.7,0.6,1.2,1.4,1.6,2.4
			c0.3,1,0.6,1.9,0.7,2.9c0.1,1,0.2,1.8,0.2,2.5V38c0,1.6-0.2,3.2-0.5,4.7c-0.3,1.5-0.9,2.6-1.8,3.5c-0.8,0.9-2,1.3-3.6,1.3
			c-0.8,0-1.6-0.2-2.2-0.6c-0.6-0.4-1.2-0.9-1.7-1.4v9.4H234.4z M241.8,44.2c0.8,0,1.3-0.3,1.6-0.8c0.3-0.5,0.5-1.3,0.6-2.2
			s0.1-2,0.1-3.1v-5.6c0-1-0.1-1.9-0.2-2.7c-0.1-0.8-0.3-1.5-0.7-2c-0.3-0.5-0.9-0.7-1.7-0.7c-0.6,0-1.1,0.1-1.6,0.4
			c-0.5,0.2-1,0.5-1.3,0.8v14.9c0.4,0.3,0.9,0.5,1.4,0.7C240.6,44.1,241.2,44.2,241.8,44.2z"/>
	</g>
</g>
</svg>
